<svg width="97" height="20" viewBox="0 0 97 20" fill="none" xmlns="http://www.w3.org/2000/svg">
<path d="M29.5489 0.754629C23.845 0.307564 19.1123 5.04028 19.5593 10.7442C19.9139 15.2303 23.5521 18.8685 28.0382 19.223C33.7421 19.6701 38.4748 14.9374 38.0277 9.23344C37.6886 4.74738 34.0504 1.1092 29.5489 0.754629Z" fill="#002673"/>
<path d="M16.5722 0.725342H1.01746C0.462481 0.725342 0 1.18782 0 1.7428V4.34811C0 4.90308 0.462481 5.36557 1.01746 5.36557H7.893C8.61756 5.36557 9.04921 6.18261 8.63297 6.76842L1.09454 17.6676C0.632057 18.3459 1.10995 19.2554 1.927 19.2554H17.5126C18.0676 19.2554 18.5301 18.7929 18.5301 18.2379V15.6326C18.5301 15.0777 18.0676 14.6152 17.5126 14.6152H10.4829C9.75834 14.6152 9.3267 13.7981 9.74293 13.1969L17.3893 2.31319C17.8826 1.66572 17.4047 0.725342 16.5722 0.725342Z" fill="#002673"/>
<path d="M39.0863 10.7442C38.6393 5.04028 43.372 0.307564 49.0759 0.754629C53.5774 1.1092 57.2156 4.74738 57.5547 9.23344C58.0018 14.9374 53.2691 19.6701 47.5651 19.223C43.0791 18.8685 39.4409 15.2303 39.0863 10.7442Z" fill="#002673"/>
<path d="M59.755 0.740758C58.8917 0.740758 58.3213 1.6503 58.7067 2.4211L66.7538 18.5C67.2626 19.5329 68.7425 19.5329 69.2512 18.5L77.3446 2.4211C77.73 1.6503 77.1751 0.725342 76.2963 0.725342H59.755V0.740758Z" fill="#002673"/>
<path d="M95.7041 0.725342C96.4287 0.725342 97.0145 1.31115 96.9991 2.0357V10.0058C96.9991 15.1239 92.8522 19.2708 87.7341 19.2708C82.6159 19.2708 78.469 15.1239 78.469 10.0058V2.0357C78.469 1.31115 79.0548 0.725342 79.7794 0.725342H95.7041Z" fill="#002673"/>
</svg>
